<?xml version="1.0" encoding="UTF-8" standalone="no"?>
<svg
   viewBox="0 0 24 24"
   fill="rgba(255,255,255,1)"
   version="1.1"
   id="svg1"
   sodipodi:docname="delete.svg"
   inkscape:version="1.3.2 (091e20ef0f, 2023-11-25)"
   xmlns:inkscape="http://www.inkscape.org/namespaces/inkscape"
   xmlns:sodipodi="http://sodipodi.sourceforge.net/DTD/sodipodi-0.dtd"
   xmlns="http://www.w3.org/2000/svg"
   xmlns:svg="http://www.w3.org/2000/svg">
  <defs
     id="defs1" />
  <sodipodi:namedview
     id="namedview1"
     pagecolor="#ffffff"
     bordercolor="#000000"
     borderopacity="0.25"
     inkscape:showpageshadow="2"
     inkscape:pageopacity="0.0"
     inkscape:pagecheckerboard="0"
     inkscape:deskcolor="#d1d1d1"
     inkscape:zoom="36.583333"
     inkscape:cx="10.56492"
     inkscape:cy="5.2756265"
     inkscape:window-width="912"
     inkscape:window-height="1064"
     inkscape:window-x="35"
     inkscape:window-y="32"
     inkscape:window-maximized="0"
     inkscape:current-layer="svg1" />
  <path
     d="M 15.665962,21 H 1.2011721 C 0.64887213,21 0.20117212,20.55228 0.20117212,20 V 4.0000001 c 0,-0.5523 0.44770001,-1 0.99999998,-1 H 15.665962 c 0.33436,0 0.64659,0.1671 0.83205,0.4453 L 21.83135,11.4453 c 0.223933,0.3359 0.223933,0.7735 0,1.1094 l -5.333338,8 C 16.312552,20.8329 16.000322,21 15.665962,21 Z m -0.53518,-2 4.66667,-7 -4.66667,-6.9999999 H 2.2011721 V 19 Z m -5.9296099,-5.5858 -2.8284,2.82844 -1.4143,-1.41421 2.8285,-2.82843 -2.8285,-2.8283999 1.4143,-1.4142 2.8284,2.8283999 2.8283999,-2.8283999 1.41422,1.4142 L 10.615372,12 l 2.82842,2.82843 -1.41422,1.41421 z"
     id="path1" />
</svg>
