<?xml version="1.0" encoding="UTF-8" standalone="no"?>
<svg
   width="16"
   height="16"
   version="1.1"
   id="svg1"
   sodipodi:docname="settings.svg"
   xml:space="preserve"
   inkscape:version="1.3.2 (091e20ef0f, 2023-11-25)"
   xmlns:inkscape="http://www.inkscape.org/namespaces/inkscape"
   xmlns:sodipodi="http://sodipodi.sourceforge.net/DTD/sodipodi-0.dtd"
   xmlns="http://www.w3.org/2000/svg"
   xmlns:svg="http://www.w3.org/2000/svg"><defs
     id="defs1" /><sodipodi:namedview
     id="namedview1"
     pagecolor="#000000"
     bordercolor="#000000"
     borderopacity="0.25"
     inkscape:showpageshadow="2"
     inkscape:pageopacity="0.0"
     inkscape:pagecheckerboard="0"
     inkscape:deskcolor="#d1d1d1"
     inkscape:zoom="39.73472"
     inkscape:cx="6.9838167"
     inkscape:cy="9.2362549"
     inkscape:window-width="1856"
     inkscape:window-height="1064"
     inkscape:window-x="35"
     inkscape:window-y="32"
     inkscape:window-maximized="0"
     inkscape:current-layer="svg1" /><g
     style="fill:#ffffff;fill-opacity:1"
     id="g3"
     transform="matrix(0.34766304,0,0,0.34766304,8.337759,8.5164457)"><path
       id="path1-6"
       style="fill:#ffffff;fill-opacity:1"
       d="m 5.353727,1.6804663 c 1.01531,-0.90854002 2.21736,-1.61271002 3.54146,-2.04784002 0.73301,0.91573 1.86025,1.50221002 3.12445,1.50221002 1.2642,0 2.3914,-0.58648002 3.1245,-1.50221002 1.3241,0.43513 2.5261,1.1393 3.5414,2.04784002 -0.4254,1.09209 -0.3693,2.3604 0.2623,3.45437 0.632,1.0946 1.7032,1.77751 2.8624,1.95464 0.1373,0.66028 0.2094,1.34438 0.2094,2.04538 0,0.7009 -0.0721,1.3850997 -0.2094,2.0452997 -1.1592,0.1772 -2.2304,0.8601 -2.8624,1.9547 -0.6316,1.0939 -0.6877,2.3623 -0.2623,3.4543 -1.0153,0.9086 -2.2173,1.6128 -3.5414,2.0479 -0.7331,-0.9157 -1.8603,-1.5022 -3.1245,-1.5022 -1.2642,0 -2.39144,0.5865 -3.12445,1.5022 -1.3241,-0.4351 -2.52615,-1.1393 -3.54146,-2.0479 0.42543,-1.092 0.36931,-2.3604 -0.26229,-3.4543 -0.63197,-1.0946 -1.70318,-1.7775 -2.86245,-1.9547 -0.13723,-0.6602 -0.20935,-1.3443997 -0.20935,-2.0452997 0,-0.701 0.07212,-1.3851 0.20935,-2.04538 1.15927,-0.17713 2.23048,-0.86004 2.86245,-1.95464 0.6316,-1.09397 0.68772,-2.36228 0.26229,-3.45437 z m 8.16591,10.0524897 c 1.4349,-0.8285 1.9265,-2.6631997 1.0981,-4.0980997 -0.8285,-1.4349 -2.6632,-1.92653 -4.0981,-1.0981 -1.43488,0.8284 -1.9265,2.6632 -1.09808,4.0980997 0.82848,1.4349 2.66318,1.9265 4.09808,1.0981 z m -31.729602,-33.340968 c 0,0 -5.752697,6e-6 -5.752697,5.752697 V 7.1554723 c 0,5.7526897 5.752697,5.7526957 5.752697,5.7526957 H 0.19978727 A 12.423014,12.423014 0 0 1 -0.40132466,9.1329613 12.423014,12.423014 0 0 1 -0.23278848,7.1554723 H -11.738182 c -0.402688,0 -0.719087,-0.3163988 -0.719087,-0.7190875 V 2.1218623 c 0,-0.4026888 0.316399,-0.7190871 0.719087,-0.7190871 H 2.3289593 a 12.423014,12.423014 0 0 1 5.3482101,-3.8707109 v -4.039247 c 0,-0.4026884 0.3163983,-0.719087 0.7190871,-0.719087 h 4.3145225 c 0.402689,0 0.719087,0.3163986 0.719087,0.719087 v 3.3033063 a 12.423014,12.423014 0 0 1 5.752697,2.1909683 V -15.855315 c 0,-5.752691 -5.752697,-5.752697 -5.752697,-5.752697 z m 0.719087,5.752697 h 4.314522 c 0.402689,0 0.719087,0.316399 0.719087,0.719087 v 4.314523 c 0,0.402688 -0.316398,0.719087 -0.719087,0.719087 h -4.314522 c -0.402689,0 -0.719087,-0.316399 -0.719087,-0.719087 v -4.314523 c 0,-0.402688 0.316398,-0.719087 0.719087,-0.719087 z m 8.6290446,0 h 4.3145225 c 0.4026884,0 0.7190871,0.316399 0.7190871,0.719087 v 4.314523 c 0,0.402688 -0.3163987,0.719087 -0.7190871,0.719087 h -4.3145225 c -0.4026885,0 -0.7190871,-0.316399 -0.7190871,-0.719087 v -4.314523 c 0,-0.402688 0.3163986,-0.719087 0.7190871,-0.719087 z m 8.62904492,0 H 4.081734 c 0.4026885,0 0.7190871,0.316399 0.7190871,0.719087 v 4.314523 c 0,0.402688 -0.3163986,0.719087 -0.7190871,0.719087 h -4.31452248 c -0.40268848,0 -0.71908708,-0.316399 -0.71908708,-0.719087 v -4.314523 c 0,-0.402688 0.3163986,-0.719087 0.71908708,-0.719087 z m 8.62904498,0 h 4.3145225 c 0.402689,0 0.719087,0.316399 0.719087,0.719087 v 4.314523 c 0,0.402688 -0.316398,0.719087 -0.719087,0.719087 H 8.3962565 c -0.4026888,0 -0.7190871,-0.316399 -0.7190871,-0.719087 v -4.314523 c 0,-0.402688 0.3163983,-0.719087 0.7190871,-0.719087 z m -25.8871345,8.6290453 h 4.314522 c 0.402689,0 0.719087,0.3163986 0.719087,0.719087 v 4.3145225 c 0,0.4026885 -0.316398,0.7190871 -0.719087,0.7190871 h -4.314522 c -0.402689,0 -0.719087,-0.3163986 -0.719087,-0.7190871 v -4.3145225 c 0,-0.4026884 0.316398,-0.719087 0.719087,-0.719087 z m 8.6290446,0 h 4.3145225 c 0.4026884,0 0.7190871,0.3163986 0.7190871,0.719087 v 4.3145225 c 0,0.4026885 -0.3163987,0.7190871 -0.7190871,0.7190871 h -4.3145225 c -0.4026885,0 -0.7190871,-0.3163986 -0.7190871,-0.7190871 v -4.3145225 c 0,-0.4026884 0.3163986,-0.719087 0.7190871,-0.719087 z m 8.62904492,0 H 4.081734 c 0.4026885,0 0.7190871,0.3163986 0.7190871,0.719087 v 4.3145225 c 0,0.4026885 -0.3163986,0.7190871 -0.7190871,0.7190871 h -4.31452248 c -0.40268848,0 -0.71908708,-0.3163986 -0.71908708,-0.7190871 v -4.3145225 c 0,-0.4026884 0.3163986,-0.719087 0.71908708,-0.719087 z" /></g></svg>
